<svg width="52" height="52" viewBox="0 0 52 52" fill="none" xmlns="http://www.w3.org/2000/svg">
<mask id="mask0_129_951" style="mask-type:alpha" maskUnits="userSpaceOnUse" x="0" y="0" width="52" height="52">
<rect width="52" height="52" fill="#D9D9D9"/>
</mask>
<g mask="url(#mask0_129_951)">
<path d="M35.1 46.7999C33.2945 46.7999 31.7597 46.168 30.4958 44.9041C29.232 43.6402 28.6 42.1055 28.6 40.2999C28.6 39.9749 28.6722 39.4513 28.8167 38.7291L15.9792 30.875C15.4014 31.3805 14.7505 31.7777 14.0265 32.0666C13.3028 32.3555 12.5273 32.5 11.7 32.5C9.89446 32.5 8.35973 31.868 7.09585 30.6041C5.83196 29.3402 5.20001 27.8055 5.20001 26C5.20001 24.1944 5.83196 22.6597 7.09585 21.3958C8.35973 20.1319 9.89446 19.5 11.7 19.5C12.5306 19.5 13.307 19.6444 14.0292 19.9333C14.7514 20.2222 15.4014 20.6194 15.9792 21.125L28.8167 13.2708C28.7445 13.018 28.6903 12.7687 28.6542 12.5227C28.6181 12.2768 28.6 12.0026 28.6 11.7C28.6 9.8944 29.232 8.35967 30.4958 7.09578C31.7597 5.8319 33.2945 5.19995 35.1 5.19995C36.9056 5.19995 38.4403 5.8319 39.7042 7.09578C40.9681 8.35967 41.6 9.8944 41.6 11.7C41.6 13.5055 40.9681 15.0402 39.7042 16.3041C38.4403 17.568 36.9056 18.2 35.1 18.2C34.2695 18.2 33.4931 18.0555 32.7708 17.7666C32.0486 17.4777 31.3986 17.0805 30.8208 16.575L17.9833 24.4291C18.0556 24.6819 18.1097 24.9312 18.1458 25.1772C18.182 25.4231 18.2 25.6973 18.2 26C18.2 26.3026 18.182 26.5768 18.1458 26.8227C18.1097 27.0687 18.0556 27.318 17.9833 27.5708L30.8208 35.4249C31.3986 34.9194 32.0495 34.5222 32.7736 34.2333C33.4972 33.9444 34.2727 33.7999 35.1 33.7999C36.9056 33.7999 38.4403 34.4319 39.7042 35.6958C40.9681 36.9597 41.6 38.4944 41.6 40.2999C41.6 42.1055 40.9681 43.6402 39.7042 44.9041C38.4403 46.168 36.9056 46.7999 35.1 46.7999Z" fill="white"/>
</g>
</svg>
