<svg width="22" height="22" viewBox="0 0 22 22" fill="none" xmlns="http://www.w3.org/2000/svg">
<mask id="mask0_56_1162" style="mask-type:alpha" maskUnits="userSpaceOnUse" x="0" y="0" width="22" height="22">
<rect width="22" height="22" fill="#D9D9D9"/>
</mask>
<g mask="url(#mask0_56_1162)">
<path d="M10.3125 10.9312C10.7097 10.4728 11.0153 9.96865 11.2292 9.41865C11.4431 8.86865 11.55 8.29574 11.55 7.6999C11.55 7.11935 11.4431 6.55407 11.2292 6.00407C11.0153 5.45407 10.7097 4.94226 10.3125 4.46865C10.4347 4.4381 10.5493 4.419 10.6562 4.41136C10.7632 4.40372 10.8778 4.3999 11 4.3999C11.9167 4.3999 12.6958 4.72074 13.3375 5.3624C13.9792 6.00407 14.3 6.78324 14.3 7.6999C14.3 8.61657 13.9792 9.39574 13.3375 10.0374C12.6958 10.6791 11.9167 10.9999 11 10.9999C10.8778 10.9999 10.7594 10.9961 10.6448 10.9884C10.5302 10.9808 10.4194 10.9617 10.3125 10.9312ZM14.85 17.5999V15.4916C14.85 14.8652 14.7049 14.2808 14.4146 13.7384C14.1243 13.1961 13.7194 12.7339 13.2 12.352C14.2389 12.5964 15.2319 12.9325 16.1792 13.3603C17.1264 13.7881 17.6 14.4985 17.6 15.4916V17.5999H14.85ZM17.875 12.0999V10.1749H15.95V8.5249H17.875V6.5999H19.525V8.5249H21.45V10.1749H19.525V12.0999H17.875ZM6.6 10.9999C5.68333 10.9999 4.90417 10.6791 4.2625 10.0374C3.62083 9.39574 3.3 8.61657 3.3 7.6999C3.3 6.78324 3.62083 6.00407 4.2625 5.3624C4.90417 4.72074 5.68333 4.3999 6.6 4.3999C7.51667 4.3999 8.29583 4.72074 8.9375 5.3624C9.57917 6.00407 9.9 6.78324 9.9 7.6999C9.9 8.61657 9.57917 9.39574 8.9375 10.0374C8.29583 10.6791 7.51667 10.9999 6.6 10.9999ZM0 17.5999V15.4916C0 15.1096 0.0954861 14.7544 0.286458 14.4259C0.477431 14.0975 0.740972 13.8263 1.07708 13.6124C1.90208 13.093 2.78438 12.711 3.72396 12.4666C4.66354 12.2221 5.62222 12.0999 6.6 12.0999C7.5625 12.0999 8.50972 12.2298 9.44167 12.4895C10.3736 12.7492 11.2674 13.1235 12.1229 13.6124C12.4438 13.8263 12.7035 14.0975 12.9021 14.4259C13.1007 14.7544 13.2 15.1096 13.2 15.4916V17.5999H0Z" fill="white"/>
</g>
</svg>
