<svg width="52" height="52" viewBox="0 0 52 52" fill="none" xmlns="http://www.w3.org/2000/svg">
<mask id="mask0_129_1086" style="mask-type:alpha" maskUnits="userSpaceOnUse" x="0" y="0" width="52" height="52">
<rect width="52" height="52" fill="#D9D9D9"/>
</mask>
<g mask="url(#mask0_129_1086)">
<path d="M34.4386 23.4C34.9879 23.4 35.4521 23.2142 35.8313 22.8426C36.2104 22.471 36.4 22.0106 36.4 21.4613C36.4 20.9121 36.2142 20.4479 35.8426 20.0687C35.4711 19.6895 35.0106 19.5 34.4614 19.5C33.9121 19.5 33.4479 19.6857 33.0688 20.0573C32.6896 20.4289 32.5 20.8893 32.5 21.4386C32.5 21.9878 32.6858 22.452 33.0574 22.8312C33.429 23.2104 33.8894 23.4 34.4386 23.4ZM18.2 19.5H28.6V15.6H18.2V19.5ZM10.4 44.2C9.24446 39.7222 8.0889 35.6236 6.93335 31.9041C5.77779 28.1847 5.20001 24.4833 5.20001 20.8C5.20001 17.538 6.33462 14.7726 8.60385 12.5038C10.8727 10.2346 13.6381 9.09995 16.9 9.09995H27.6792C28.7625 7.83606 30.0625 6.87009 31.5792 6.20203C33.0958 5.53398 34.7028 5.19995 36.4 5.19995C37.1222 5.19995 37.7361 5.45273 38.2417 5.95828C38.7472 6.46384 39 7.07773 39 7.79995C39 8.01662 38.8556 8.5944 38.5667 9.53328C38.3861 9.8944 38.2146 10.2465 38.0521 10.5895C37.8896 10.9326 37.7722 11.3027 37.7 11.7L42.9 16.9H46.8V31.2L40.95 32.5L37.7 44.2H26V40.2999H22.1V44.2H10.4Z" fill="white"/>
</g>
</svg>
