<svg width="22" height="22" viewBox="0 0 22 22" fill="none" xmlns="http://www.w3.org/2000/svg">
<path d="M5.43147 14.0302C5.53244 13.9337 5.66933 13.8794 5.81205 13.8794H18.9803C19.2201 13.8794 19.3402 14.157 19.1705 14.3193L16.5685 16.8076C16.4676 16.9041 16.3307 16.9584 16.188 16.9584H3.01973C2.77987 16.9584 2.65978 16.6808 2.82945 16.5185L5.43147 14.0302Z" fill="url(#paint0_linear_56_1173)"/>
<path d="M5.43147 4.73417C5.53243 4.63761 5.66932 4.58337 5.81205 4.58337H18.9803C19.2201 4.58337 19.3402 4.86099 19.1705 5.02328L16.5685 7.51156C16.4676 7.60809 16.3307 7.66232 16.188 7.66232H3.01973C2.77987 7.66232 2.65978 7.3847 2.82945 7.22244L5.43147 4.73417Z" fill="url(#paint1_linear_56_1173)"/>
<path d="M16.5685 9.35257C16.4676 9.25603 16.3307 9.20181 16.188 9.20181H3.01973C2.77987 9.20181 2.65978 9.47942 2.82945 9.64169L5.43147 12.13C5.53243 12.2265 5.66932 12.2808 5.81205 12.2807H18.9803C19.2201 12.2807 19.3402 12.0031 19.1705 11.8408L16.5685 9.35257Z" fill="url(#paint2_linear_56_1173)"/>
<defs>
<linearGradient id="paint0_linear_56_1173" x1="13.905" y1="1.18886" x2="5.40443" y2="18.2015" gradientUnits="userSpaceOnUse">
<stop stop-color="#00FFA3"/>
<stop offset="1" stop-color="#DC1FFF"/>
</linearGradient>
<linearGradient id="paint1_linear_56_1173" x1="13.905" y1="1.18886" x2="5.40443" y2="18.2015" gradientUnits="userSpaceOnUse">
<stop stop-color="#00FFA3"/>
<stop offset="1" stop-color="#DC1FFF"/>
</linearGradient>
<linearGradient id="paint2_linear_56_1173" x1="13.905" y1="1.18886" x2="5.40443" y2="18.2015" gradientUnits="userSpaceOnUse">
<stop stop-color="#00FFA3"/>
<stop offset="1" stop-color="#DC1FFF"/>
</linearGradient>
</defs>
</svg>
