<svg width="22" height="22" viewBox="0 0 22 22" fill="none" xmlns="http://www.w3.org/2000/svg">
<mask id="mask0_56_3303" style="mask-type:alpha" maskUnits="userSpaceOnUse" x="0" y="0" width="22" height="22">
<rect width="22" height="22" fill="#D9D9D9"/>
</mask>
<g mask="url(#mask0_56_3303)">
<path d="M6.5998 8.24998V6.59998H18.6998V8.24998H6.5998ZM6.5998 11.825V10.175H18.6998V11.825H6.5998ZM6.5998 15.4V13.75H18.6998V15.4H6.5998ZM4.1248 8.24998C3.91092 8.24998 3.71994 8.16595 3.55189 7.99789C3.38383 7.82984 3.2998 7.63505 3.2998 7.41352C3.2998 7.19199 3.38383 7.00102 3.55189 6.8406C3.71994 6.68018 3.91474 6.59998 4.13626 6.59998C4.35779 6.59998 4.54876 6.67904 4.70918 6.83716C4.8696 6.99529 4.9498 7.19123 4.9498 7.42498C4.9498 7.63886 4.87074 7.82984 4.71262 7.99789C4.55449 8.16595 4.35855 8.24998 4.1248 8.24998ZM4.1248 11.825C3.91092 11.825 3.71994 11.7409 3.55189 11.5729C3.38383 11.4048 3.2998 11.21 3.2998 10.9885C3.2998 10.767 3.38383 10.576 3.55189 10.4156C3.71994 10.2552 3.91474 10.175 4.13626 10.175C4.35779 10.175 4.54876 10.254 4.70918 10.4122C4.8696 10.5703 4.9498 10.7662 4.9498 11C4.9498 11.2139 4.87074 11.4048 4.71262 11.5729C4.55449 11.7409 4.35855 11.825 4.1248 11.825ZM4.1248 15.4C3.91092 15.4 3.71994 15.3159 3.55189 15.1479C3.38383 14.9798 3.2998 14.785 3.2998 14.5635C3.2998 14.342 3.38383 14.151 3.55189 13.9906C3.71994 13.8302 3.91474 13.75 4.13626 13.75C4.35779 13.75 4.54876 13.829 4.70918 13.9872C4.8696 14.1453 4.9498 14.3412 4.9498 14.575C4.9498 14.7889 4.87074 14.9798 4.71262 15.1479C4.55449 15.3159 4.35855 15.4 4.1248 15.4Z" fill="white"/>
</g>
</svg>
