<svg width="40" height="41" viewBox="0 0 40 41" fill="none" xmlns="http://www.w3.org/2000/svg">
<path d="M36.3352 29.076L31.0526 34.6187C30.9378 34.7391 30.7988 34.8351 30.6445 34.9007C30.4901 34.9663 30.3235 35.0001 30.1552 35H5.11327C4.99378 35 4.87689 34.9658 4.77697 34.9017C4.67705 34.8376 4.59845 34.7464 4.55082 34.6391C4.5032 34.532 4.48862 34.4135 4.50888 34.2983C4.52915 34.183 4.58337 34.0761 4.66489 33.9907L9.95143 28.448C10.066 28.3279 10.2045 28.2321 10.3583 28.1665C10.5123 28.1009 10.6783 28.0669 10.8462 28.0667H35.8867C36.0062 28.0667 36.1231 28.1008 36.2231 28.1649C36.3229 28.229 36.4014 28.3203 36.4493 28.4275C36.4968 28.5347 36.5114 28.6532 36.4911 28.7684C36.4708 28.8836 36.4166 28.9905 36.3352 29.076ZM31.0526 17.9147C30.9378 17.7943 30.7988 17.6983 30.6445 17.6327C30.4901 17.5671 30.3235 17.5332 30.1552 17.5333H5.11327C4.99378 17.5333 4.87689 17.5675 4.77697 17.6316C4.67705 17.6957 4.59845 17.787 4.55082 17.8942C4.5032 18.0014 4.48862 18.1199 4.50888 18.2351C4.52915 18.3503 4.58337 18.4572 4.66489 18.5427L9.95143 24.0853C10.066 24.2054 10.2045 24.3012 10.3583 24.3668C10.5123 24.4324 10.6783 24.4664 10.8462 24.4667H35.8867C36.0062 24.4667 36.1231 24.4325 36.2231 24.3684C36.3229 24.3043 36.4014 24.213 36.4493 24.1058C36.4968 23.9986 36.5114 23.8801 36.4911 23.7649C36.4708 23.6497 36.4166 23.5428 36.3352 23.4573L31.0526 17.9147ZM5.11327 13.9333H30.1552C30.3235 13.9334 30.4901 13.8996 30.6445 13.834C30.7988 13.7684 30.9378 13.6724 31.0526 13.552L36.3352 8.00933C36.4166 7.92386 36.4708 7.81696 36.4911 7.70175C36.5114 7.58654 36.4968 7.46806 36.4493 7.36084C36.4014 7.25363 36.3229 7.16237 36.2231 7.09826C36.1231 7.03416 36.0062 7 35.8867 7H10.8462C10.6783 7.00028 10.5123 7.03427 10.3583 7.09986C10.2045 7.16545 10.066 7.26125 9.95143 7.38133L4.66625 12.924C4.58481 13.0094 4.53061 13.1162 4.5103 13.2312C4.48999 13.3463 4.50446 13.4647 4.55191 13.5719C4.59937 13.679 4.67777 13.7703 4.77748 13.8345C4.8772 13.8987 4.9939 13.9331 5.11327 13.9333Z" fill="url(#paint0_linear_57_4162)"/>
<defs>
<linearGradient id="paint0_linear_57_4162" x1="7.20117" y1="35.6673" x2="32.8201" y2="6.1481" gradientUnits="userSpaceOnUse">
<stop offset="0.08" stop-color="#9945FF"/>
<stop offset="0.3" stop-color="#8752F3"/>
<stop offset="0.5" stop-color="#5497D5"/>
<stop offset="0.6" stop-color="#43B4CA"/>
<stop offset="0.72" stop-color="#28E0B9"/>
<stop offset="0.97" stop-color="#19FB9B"/>
</linearGradient>
</defs>
</svg>
