<svg width="68" height="58" viewBox="0 0 68 58" fill="none" xmlns="http://www.w3.org/2000/svg">
<g clip-path="url(#clip0_57_4153)">
<path d="M0 0.00012207L33.9968 19.3314L33.9968 7.08846L0 0.00012207Z" fill="url(#paint0_linear_57_4153)"/>
<path d="M68 0.000128016L33.9968 7.08846L33.9968 19.3314L68 0.000128016Z" fill="url(#paint1_linear_57_4153)"/>
<path d="M68 0.000128016L33.9968 7.08846L33.9968 19.3314L68 0.000128016Z" fill="url(#paint2_linear_57_4153)"/>
<path d="M68 0.000128016L33.9968 19.3314L33.9968 58.0001L68 0.000128016Z" fill="url(#paint3_linear_57_4153)"/>
<path d="M33.9968 58.0001L33.9968 19.3314L0 0.00012207L33.9968 58.0001Z" fill="url(#paint4_linear_57_4153)"/>
</g>
<defs>
<linearGradient id="paint0_linear_57_4153" x1="16.9952" y1="19.3453" x2="17.001" y2="7.14358" gradientUnits="userSpaceOnUse">
<stop stop-color="#FFCD59"/>
<stop offset="0.17" stop-color="#FEC353"/>
<stop offset="0.45" stop-color="#FEAA44"/>
<stop offset="0.8" stop-color="#FD812C"/>
<stop offset="1" stop-color="#FD671D"/>
</linearGradient>
<linearGradient id="paint1_linear_57_4153" x1="67.8485" y1="9.66887" x2="-0.0126519" y2="9.66885" gradientUnits="userSpaceOnUse">
<stop stop-color="#FFCD59"/>
<stop offset="0.17" stop-color="#FEC353"/>
<stop offset="0.45" stop-color="#FEAA44"/>
<stop offset="0.8" stop-color="#FD812C"/>
<stop offset="1" stop-color="#FD671D"/>
</linearGradient>
<linearGradient id="paint2_linear_57_4153" x1="51.0436" y1="19.2909" x2="50.991" y2="7.12332" gradientUnits="userSpaceOnUse">
<stop stop-color="#FFB448"/>
<stop offset="0.21" stop-color="#FEAA42"/>
<stop offset="0.55" stop-color="#FE9134"/>
<stop offset="0.99" stop-color="#FD681D"/>
<stop offset="1" stop-color="#FD671D"/>
</linearGradient>
<linearGradient id="paint3_linear_57_4153" x1="34.041" y1="19.3873" x2="50.825" y2="29.1963" gradientUnits="userSpaceOnUse">
<stop stop-color="white"/>
<stop offset="1" stop-color="#FDDD33"/>
</linearGradient>
<linearGradient id="paint4_linear_57_4153" x1="34.0032" y1="19.3376" x2="17.1631" y2="29.1972" gradientUnits="userSpaceOnUse">
<stop stop-color="#FDDD33"/>
<stop offset="0.2" stop-color="#FDD32F"/>
<stop offset="0.54" stop-color="#FDBA25"/>
<stop offset="0.96" stop-color="#FD9116"/>
<stop offset="1" stop-color="#FE8D15"/>
</linearGradient>
<clipPath id="clip0_57_4153">
<rect width="68" height="58" fill="white"/>
</clipPath>
</defs>
</svg>
