<svg width="24" height="24" viewBox="0 0 24 24" fill="none" xmlns="http://www.w3.org/2000/svg">
<rect width="24" height="24" rx="12" fill="#B1B1B1"/>
<mask id="mask0_56_859" style="mask-type:alpha" maskUnits="userSpaceOnUse" x="4" y="4" width="16" height="16">
<rect x="4" y="4" width="16" height="16" fill="#D9D9D9"/>
</mask>
<g mask="url(#mask0_56_859)">
<path d="M9.9999 15.2H13.9999V14H11.1999V12.6H12.7999C13.1299 12.6 13.4124 12.4825 13.6474 12.2475C13.8824 12.0125 13.9999 11.73 13.9999 11.4V10C13.9999 9.67 13.8824 9.3875 13.6474 9.1525C13.4124 8.9175 13.1299 8.8 12.7999 8.8H9.9999V10H12.7999V11.4H11.1999C10.8699 11.4 10.5874 11.5175 10.3524 11.7525C10.1174 11.9875 9.9999 12.27 9.9999 12.6V15.2ZM7.5999 17.6C7.2699 17.6 6.9874 17.4825 6.7524 17.2475C6.5174 17.0125 6.3999 16.73 6.3999 16.4V7.6C6.3999 7.27 6.5174 6.9875 6.7524 6.7525C6.9874 6.5175 7.2699 6.4 7.5999 6.4H16.3999C16.7299 6.4 17.0124 6.5175 17.2474 6.7525C17.4824 6.9875 17.5999 7.27 17.5999 7.6V16.4C17.5999 16.73 17.4824 17.0125 17.2474 17.2475C17.0124 17.4825 16.7299 17.6 16.3999 17.6H7.5999Z" fill="#09012A"/>
</g>
</svg>
